REM DIRINDEX 1\2,1\4,1\3\5,1\3\6,1\3\7
REM DIRNAME folder01,folder02,folder03,folder04,folder05,folder06,folder07
TITLE ""
FILE "CD3Track26.mp3" MP3
  TRACK 01 AUDIO
    TITLE "0:"
    INDEX 01 00:00:00
  TRACK 02 AUDIO
    TITLE "5:cjc082_2792"
    INDEX 01 00:00:27
  TRACK 03 AUDIO
    TITLE "0:"
    INDEX 01 00:01:36
  TRACK 04 AUDIO
    TITLE "6:cjc082_2793"
    INDEX 01 00:02:18
  TRACK 05 AUDIO
    TITLE "0:"
    INDEX 01 00:03:41
  TRACK 06 AUDIO
    TITLE "5:cjc082_2794"
    INDEX 01 00:04:17
  TRACK 07 AUDIO
    TITLE "0:"
    INDEX 01 00:05:30
  TRACK 08 AUDIO
    TITLE "6:cjc082_2795"
    INDEX 01 00:06:04
  TRACK 09 AUDIO
    TITLE "0:"
    INDEX 01 00:09:63
  TRACK 10 AUDIO
    TITLE "5:cjc082_2796"
    INDEX 01 00:10:39
  TRACK 11 AUDIO
    TITLE "0:"
    INDEX 01 00:11:54
  TRACK 12 AUDIO
    TITLE "6:cjc082_2797"
    INDEX 01 00:12:32
  TRACK 13 AUDIO
    TITLE "0:"
    INDEX 01 00:13:41
  TRACK 14 AUDIO
    TITLE "5:cjc082_2798"
    INDEX 01 00:14:15
  TRACK 15 AUDIO
    TITLE "0:"
    INDEX 01 00:15:50
  TRACK 16 AUDIO
    TITLE "6:cjc082_2799"
    INDEX 01 00:16:30
  TRACK 17 AUDIO
    TITLE "0:"
    INDEX 01 00:19:71
  TRACK 18 AUDIO
    TITLE "5:cjc082_2800"
    INDEX 01 00:20:39
  TRACK 19 AUDIO
    TITLE "0:"
    INDEX 01 00:21:74
  TRACK 20 AUDIO
    TITLE "6:cjc082_2801"
    INDEX 01 00:22:54
  TRACK 21 AUDIO
    TITLE "0:"
    INDEX 01 00:24:02
  TRACK 22 AUDIO
    TITLE "5:cjc082_2802"
    INDEX 01 00:24:51
  TRACK 23 AUDIO
    TITLE "0:"
    INDEX 01 00:26:50
  TRACK 24 AUDIO
    TITLE "6:cjc082_2803"
    INDEX 01 00:27:22
  TRACK 25 AUDIO
    TITLE "0:"
    INDEX 01 00:30:06
  TRACK 26 AUDIO
    TITLE "5:cjc082_2804"
    INDEX 01 00:30:52
  TRACK 27 AUDIO
    TITLE "0:"
    INDEX 01 00:32:03
  TRACK 28 AUDIO
    TITLE "6:cjc082_2805"
    INDEX 01 00:32:52
  TRACK 29 AUDIO
    TITLE "0:"
    INDEX 01 00:34:00
  TRACK 30 AUDIO
    TITLE "5:cjc082_2806"
    INDEX 01 00:34:49
  TRACK 31 AUDIO
    TITLE "0:"
    INDEX 01 00:35:59
  TRACK 32 AUDIO
    TITLE "6:cjc082_2807"
    INDEX 01 00:36:33
  TRACK 33 AUDIO
    TITLE "0:"
    INDEX 01 00:38:69
  TRACK 34 AUDIO
    TITLE "5:cjc082_2808"
    INDEX 01 00:39:43
  TRACK 35 AUDIO
    TITLE "0:"
    INDEX 01 00:41:06
  TRACK 36 AUDIO
    TITLE "6:cjc082_2809"
    INDEX 01 00:41:61
  TRACK 37 AUDIO
    TITLE "0:"
    INDEX 01 00:44:14
  TRACK 38 AUDIO
    TITLE "5:cjc082_2810"
    INDEX 01 00:44:63
  TRACK 39 AUDIO
    TITLE "0:"
    INDEX 01 00:47:19
  TRACK 40 AUDIO
    TITLE "6:cjc082_2811"
    INDEX 01 00:48:00
  TRACK 41 AUDIO
    TITLE "0:"
    INDEX 01 00:49:69
  TRACK 42 AUDIO
    TITLE "5:cjc082_2812"
    INDEX 01 00:50:42
  TRACK 43 AUDIO
    TITLE "0:"
    INDEX 01 00:52:18
  TRACK 44 AUDIO
    TITLE "6:cjc082_2813"
    INDEX 01 00:52:71
  TRACK 45 AUDIO
    TITLE "0:"
    INDEX 01 00:55:03
  TRACK 46 AUDIO
    TITLE "5:cjc082_2814"
    INDEX 01 00:55:50
  TRACK 47 AUDIO
    TITLE "0:"
    INDEX 01 00:57:17
  TRACK 48 AUDIO
    TITLE "6:cjc082_2815"
    INDEX 01 00:57:68
  TRACK 49 AUDIO
    TITLE "0:"
    INDEX 01 01:00:51
  TRACK 50 AUDIO
    TITLE "5:cjc082_2816"
    INDEX 01 01:01:27
  TRACK 51 AUDIO
    TITLE "0:"
    INDEX 01 01:02:59
  TRACK 52 AUDIO
    TITLE "6:cjc082_2817"
    INDEX 01 01:03:31
  TRACK 53 AUDIO
    TITLE "0:"
    INDEX 01 01:04:33
  TRACK 54 AUDIO
    TITLE "5:cjc082_2818"
    INDEX 01 01:05:05
  TRACK 55 AUDIO
    TITLE "0:"
    INDEX 01 01:06:32
  TRACK 56 AUDIO
    TITLE "6:cjc082_2819"
    INDEX 01 01:07:12
  TRACK 57 AUDIO
    TITLE "0:"
    INDEX 01 01:08:50
  TRACK 58 AUDIO
    TITLE "7:cjc082_2820"
    INDEX 01 01:10:18
  TRACK 59 AUDIO
    TITLE "0:"
    INDEX 01 01:20:63
